<?xml version="1.0" standalone="no"?><svg xmlns:xlink="http://www.w3.org/1999/xlink" xmlns="http://www.w3.org/2000/svg" viewBox="0 0 1000 583.335049529419" preserveAspectRatio="xMaxYMax slice"><g transform="scale(1.2871470642749758)"><rect x="0" y="0" width="776.9142857142858" height="453.20000000000005" fill="#000000"/><rect x="0" y="0" width="64.74" height="64.74" fill="#010309"/><polygon points="0,0 64.74,0 64.74,64.74" fill="#030920"/><rect x="64.74" y="0" width="64.74" height="64.74" fill="#000000"/><polygon points="129.48,0 129.48,64.74 64.74,64.74" fill="#010206"/><rect x="129.49" y="0" width="64.74" height="64.74" fill="#131a2d"/><polygon points="129.49,0 194.23000000000002,0 194.23000000000002,64.74" fill="#05060a"/><rect x="194.23" y="0" width="64.74" height="64.74" fill="#06080f"/><polygon points="194.23,0 258.96999999999997,0 258.96999999999997,64.74" fill="#1a233d"/><rect x="258.97" y="0" width="64.74" height="64.74" fill="#05070c"/><polygon points="323.71000000000004,0 323.71000000000004,64.74 258.97,64.74" fill="#010209"/><rect x="323.71" y="0" width="64.74" height="64.74" fill="#040a25"/><polygon points="323.71,0 388.45,0 323.71,64.74" fill="#0e1322"/><rect x="388.46" y="0" width="64.74" height="64.74" fill="#212b4c"/><polygon points="388.46,0 453.2,0 453.2,64.74" fill="#080b13"/><rect x="453.2" y="0" width="64.74" height="64.74" fill="#020615"/><polygon points="453.2,0 517.9399999999999,0 453.2,64.74" fill="#101525"/><rect x="517.94" y="0" width="64.74" height="64.74" fill="#000102"/><polygon points="582.6800000000001,0 582.6800000000001,64.74 517.94,64.74" fill="#030920"/><rect x="582.69" y="0" width="64.74" height="64.74" fill="#28345c"/><polygon points="647.4300000000001,0 647.4300000000001,64.74 582.69,64.74" fill="#111627"/><rect x="647.43" y="0" width="64.74" height="64.74" fill="#253157"/><polygon points="712.17,0 712.17,64.74 647.43,64.74" fill="#020410"/><rect x="712.17" y="0" width="64.74" height="64.74" fill="#06080e"/><polygon points="712.17,0 776.91,0 776.91,64.74" fill="#01040e"/><rect x="0" y="64.74" width="64.74" height="64.74" fill="#030920"/><polygon points="0,64.74 64.74,129.48 0,129.48" fill="#1b243f"/><rect x="64.74" y="64.74" width="64.74" height="64.74" fill="#03081f"/><polygon points="129.48,64.74 129.48,129.48 64.74,129.48" fill="#040a24"/><rect x="129.49" y="64.74" width="64.74" height="64.74" fill="#1f2948"/><polygon points="129.49,64.74 194.23000000000002,64.74 129.49,129.48" fill="#171e35"/><rect x="194.23" y="64.74" width="64.74" height="64.74" fill="#020514"/><polygon points="194.23,64.74 258.96999999999997,64.74 194.23,129.48" fill="#0c101b"/><rect x="258.97" y="64.74" width="64.74" height="64.74" fill="#05070c"/><polygon points="258.97,64.74 323.71000000000004,129.48 258.97,129.48" fill="#12182a"/><rect x="323.71" y="64.74" width="64.74" height="64.74" fill="#19223b"/><polygon points="323.71,64.74 388.45,64.74 388.45,129.48" fill="#111728"/><rect x="388.46" y="64.74" width="64.74" height="64.74" fill="#131a2d"/><polygon points="388.46,64.74 453.2,129.48 388.46,129.48" fill="#090c15"/><rect x="453.2" y="64.74" width="64.74" height="64.74" fill="#202a4a"/><polygon points="453.2,64.74 517.9399999999999,64.74 453.2,129.48" fill="#040923"/><rect x="517.94" y="64.74" width="64.74" height="64.74" fill="#1c2642"/><polygon points="517.94,64.74 582.6800000000001,64.74 582.6800000000001,129.48" fill="#0d121f"/><rect x="582.69" y="64.74" width="64.74" height="64.74" fill="#040a23"/><polygon points="582.69,64.74 647.4300000000001,129.48 582.69,129.48" fill="#03071a"/><rect x="647.43" y="64.74" width="64.74" height="64.74" fill="#1a233d"/><polygon points="647.43,64.74 712.17,129.48 647.43,129.48" fill="#101526"/><rect x="712.17" y="64.74" width="64.74" height="64.74" fill="#090b14"/><polygon points="776.91,64.74 776.91,129.48 712.17,129.48" fill="#030618"/><rect x="0" y="129.49" width="64.74" height="64.74" fill="#05070c"/><polygon points="0,129.49 64.74,129.49 64.74,194.23000000000002" fill="#222d50"/><rect x="64.74" y="129.49" width="64.74" height="64.74" fill="#020512"/><polygon points="129.48,129.49 129.48,194.23000000000002 64.74,194.23000000000002" fill="#040a23"/><rect x="129.49" y="129.49" width="64.74" height="64.74" fill="#090c14"/><polygon points="129.49,129.49 194.23000000000002,129.49 194.23000000000002,194.23000000000002" fill="#253157"/><rect x="194.23" y="129.49" width="64.74" height="64.74" fill="#020616"/><polygon points="194.23,129.49 258.96999999999997,129.49 258.96999999999997,194.23000000000002" fill="#1b243f"/><rect x="258.97" y="129.49" width="64.74" height="64.74" fill="#13192b"/><polygon points="258.97,129.49 323.71000000000004,129.49 323.71000000000004,194.23000000000002" fill="#010206"/><rect x="323.71" y="129.49" width="64.74" height="64.74" fill="#03081c"/><polygon points="323.71,129.49 388.45,194.23000000000002 323.71,194.23000000000002" fill="#212c4e"/><rect x="388.46" y="129.49" width="64.74" height="64.74" fill="#0a0d16"/><polygon points="388.46,129.49 453.2,129.49 388.46,194.23000000000002" fill="#0f1322"/><rect x="453.2" y="129.49" width="64.74" height="64.74" fill="#181f37"/><polygon points="517.9399999999999,129.49 517.9399999999999,194.23000000000002 453.2,194.23000000000002" fill="#020513"/><rect x="517.94" y="129.49" width="64.74" height="64.74" fill="#000102"/><polygon points="582.6800000000001,129.49 582.6800000000001,194.23000000000002 517.94,194.23000000000002" fill="#030508"/><rect x="582.69" y="129.49" width="64.74" height="64.74" fill="#000102"/><polygon points="582.69,129.49 647.4300000000001,129.49 647.4300000000001,194.23000000000002" fill="#1c2440"/><rect x="647.43" y="129.49" width="64.74" height="64.74" fill="#1e2745"/><polygon points="647.43,129.49 712.17,194.23000000000002 647.43,194.23000000000002" fill="#040923"/><rect x="712.17" y="129.49" width="64.74" height="64.74" fill="#1d2744"/><polygon points="776.91,129.49 776.91,194.23000000000002 712.17,194.23000000000002" fill="#1c2541"/><rect x="0" y="194.23" width="64.74" height="64.74" fill="#141b2f"/><polygon points="0,194.23 64.74,194.23 64.74,258.96999999999997" fill="#030617"/><rect x="64.74" y="194.23" width="64.74" height="64.74" fill="#02040f"/><polygon points="64.74,194.23 129.48,258.96999999999997 64.74,258.96999999999997" fill="#03081f"/><rect x="129.49" y="194.23" width="64.74" height="64.74" fill="#0b0f1a"/><polygon points="129.49,194.23 194.23000000000002,194.23 129.49,258.96999999999997" fill="#253055"/><rect x="194.23" y="194.23" width="64.74" height="64.74" fill="#010206"/><polygon points="258.96999999999997,194.23 258.96999999999997,258.96999999999997 194.23,258.96999999999997" fill="#06080d"/><rect x="258.97" y="194.23" width="64.74" height="64.74" fill="#0e1321"/><polygon points="258.97,194.23 323.71000000000004,194.23 323.71000000000004,258.96999999999997" fill="#020513"/><rect x="323.71" y="194.23" width="64.74" height="64.74" fill="#03081e"/><polygon points="323.71,194.23 388.45,194.23 323.71,258.96999999999997" fill="#03081f"/><rect x="388.46" y="194.23" width="64.74" height="64.74" fill="#020511"/><polygon points="453.2,194.23 453.2,258.96999999999997 388.46,258.96999999999997" fill="#12182b"/><rect x="453.2" y="194.23" width="64.74" height="64.74" fill="#0e1321"/><polygon points="453.2,194.23 517.9399999999999,258.96999999999997 453.2,258.96999999999997" fill="#040a24"/><rect x="517.94" y="194.23" width="64.74" height="64.74" fill="#05060b"/><polygon points="517.94,194.23 582.6800000000001,194.23 582.6800000000001,258.96999999999997" fill="#253156"/><rect x="582.69" y="194.23" width="64.74" height="64.74" fill="#02040e"/><polygon points="647.4300000000001,194.23 647.4300000000001,258.96999999999997 582.69,258.96999999999997" fill="#06080e"/><rect x="647.43" y="194.23" width="64.74" height="64.74" fill="#03081c"/><polygon points="712.17,194.23 712.17,258.96999999999997 647.43,258.96999999999997" fill="#010209"/><rect x="712.17" y="194.23" width="64.74" height="64.74" fill="#1a233e"/><polygon points="712.17,194.23 776.91,258.96999999999997 712.17,258.96999999999997" fill="#040a24"/><rect x="0" y="258.97" width="64.74" height="64.74" fill="#010101"/><polygon points="0,258.97 64.74,258.97 64.74,323.71000000000004" fill="#03071a"/><rect x="64.74" y="258.97" width="64.74" height="64.74" fill="#000001"/><polygon points="64.74,258.97 129.48,258.97 64.74,323.71000000000004" fill="#141b2f"/><rect x="129.49" y="258.97" width="64.74" height="64.74" fill="#19223b"/><polygon points="129.49,258.97 194.23000000000002,258.97 194.23000000000002,323.71000000000004" fill="#05070d"/><rect x="194.23" y="258.97" width="64.74" height="64.74" fill="#05060b"/><polygon points="258.96999999999997,258.97 258.96999999999997,323.71000000000004 194.23,323.71000000000004" fill="#020617"/><rect x="258.97" y="258.97" width="64.74" height="64.74" fill="#010105"/><polygon points="323.71000000000004,258.97 323.71000000000004,323.71000000000004 258.97,323.71000000000004" fill="#040922"/><rect x="323.71" y="258.97" width="64.74" height="64.74" fill="#06090f"/><polygon points="388.45,258.97 388.45,323.71000000000004 323.71,323.71000000000004" fill="#19223b"/><rect x="388.46" y="258.97" width="64.74" height="64.74" fill="#070911"/><polygon points="388.46,258.97 453.2,323.71000000000004 388.46,323.71000000000004" fill="#151c31"/><rect x="453.2" y="258.97" width="64.74" height="64.74" fill="#000104"/><polygon points="453.2,258.97 517.9399999999999,258.97 453.2,323.71000000000004" fill="#03071a"/><rect x="517.94" y="258.97" width="64.74" height="64.74" fill="#020514"/><polygon points="517.94,258.97 582.6800000000001,258.97 582.6800000000001,323.71000000000004" fill="#1b243f"/><rect x="582.69" y="258.97" width="64.74" height="64.74" fill="#253156"/><polygon points="582.69,258.97 647.4300000000001,258.97 647.4300000000001,323.71000000000004" fill="#02040f"/><rect x="647.43" y="258.97" width="64.74" height="64.74" fill="#222e50"/><polygon points="647.43,258.97 712.17,258.97 712.17,323.71000000000004" fill="#010209"/><rect x="712.17" y="258.97" width="64.74" height="64.74" fill="#010206"/><polygon points="776.91,258.97 776.91,323.71000000000004 712.17,323.71000000000004" fill="#02040f"/><rect x="0" y="323.71" width="64.74" height="64.74" fill="#02040e"/><polygon points="0,323.71 64.74,323.71 64.74,388.45" fill="#040508"/><rect x="64.74" y="323.71" width="64.74" height="64.74" fill="#040923"/><polygon points="64.74,323.71 129.48,323.71 64.74,388.45" fill="#04060a"/><rect x="129.49" y="323.71" width="64.74" height="64.74" fill="#000103"/><polygon points="194.23000000000002,323.71 194.23000000000002,388.45 129.49,388.45" fill="#28355c"/><rect x="194.23" y="323.71" width="64.74" height="64.74" fill="#1e2847"/><polygon points="194.23,323.71 258.96999999999997,388.45 194.23,388.45" fill="#111627"/><rect x="258.97" y="323.71" width="64.74" height="64.74" fill="#020617"/><polygon points="258.97,323.71 323.71000000000004,323.71 323.71000000000004,388.45" fill="#010207"/><rect x="323.71" y="323.71" width="64.74" height="64.74" fill="#06080d"/><polygon points="323.71,323.71 388.45,388.45 323.71,388.45" fill="#040508"/><rect x="388.46" y="323.71" width="64.74" height="64.74" fill="#010105"/><polygon points="388.46,323.71 453.2,323.71 453.2,388.45" fill="#212c4e"/><rect x="453.2" y="323.71" width="64.74" height="64.74" fill="#232f52"/><polygon points="517.9399999999999,323.71 517.9399999999999,388.45 453.2,388.45" fill="#1d2643"/><rect x="517.94" y="323.71" width="64.74" height="64.74" fill="#020513"/><polygon points="517.94,323.71 582.6800000000001,388.45 517.94,388.45" fill="#03071c"/><rect x="582.69" y="323.71" width="64.74" height="64.74" fill="#253157"/><polygon points="582.69,323.71 647.4300000000001,323.71 647.4300000000001,388.45" fill="#151c30"/><rect x="647.43" y="323.71" width="64.74" height="64.74" fill="#141a2e"/><polygon points="647.43,323.71 712.17,323.71 647.43,388.45" fill="#0b0e19"/><rect x="712.17" y="323.71" width="64.74" height="64.74" fill="#01030a"/><polygon points="712.17,323.71 776.91,323.71 712.17,388.45" fill="#01030b"/><rect x="0" y="388.46" width="64.74" height="64.74" fill="#020514"/><polygon points="0,388.46 64.74,388.46 64.74,453.2" fill="#000002"/><rect x="64.74" y="388.46" width="64.74" height="64.74" fill="#202b4b"/><polygon points="64.74,388.46 129.48,388.46 64.74,453.2" fill="#1a233d"/><rect x="129.49" y="388.46" width="64.74" height="64.74" fill="#1c2541"/><polygon points="194.23000000000002,388.46 194.23000000000002,453.2 129.49,453.2" fill="#030618"/><rect x="194.23" y="388.46" width="64.74" height="64.74" fill="#030406"/><polygon points="194.23,388.46 258.96999999999997,453.2 194.23,453.2" fill="#01030a"/><rect x="258.97" y="388.46" width="64.74" height="64.74" fill="#121829"/><polygon points="258.97,388.46 323.71000000000004,388.46 323.71000000000004,453.2" fill="#1d2744"/><rect x="323.71" y="388.46" width="64.74" height="64.74" fill="#030617"/><polygon points="323.71,388.46 388.45,388.46 323.71,453.2" fill="#101524"/><rect x="388.46" y="388.46" width="64.74" height="64.74" fill="#1a223c"/><polygon points="388.46,388.46 453.2,388.46 453.2,453.2" fill="#03071a"/><rect x="453.2" y="388.46" width="64.74" height="64.74" fill="#03071a"/><polygon points="517.9399999999999,388.46 517.9399999999999,453.2 453.2,453.2" fill="#151c30"/><rect x="517.94" y="388.46" width="64.74" height="64.74" fill="#01040d"/><polygon points="582.6800000000001,388.46 582.6800000000001,453.2 517.94,453.2" fill="#13192c"/><rect x="582.69" y="388.46" width="64.74" height="64.74" fill="#000103"/><polygon points="582.69,388.46 647.4300000000001,388.46 582.69,453.2" fill="#020513"/><rect x="647.43" y="388.46" width="64.74" height="64.74" fill="#141a2e"/><polygon points="647.43,388.46 712.17,453.2 647.43,453.2" fill="#01040d"/><rect x="712.17" y="388.46" width="64.74" height="64.74" fill="#0b0e19"/><polygon points="712.17,388.46 776.91,453.2 712.17,453.2" fill="#0a0d17"/></g></svg>